# xmcd CD database file
#
# Track frame offsets:
#	150
#	13857
#	26003
#	40983
#	56819
#	70470
#	88558
#	105801
#	121194
#	132592
#	152097
#	170469
#	182121
#	199924
#
# Disc length: 2904 seconds
#
# Revision: 0
# Processed by: cddbd v1.5.2PL0 Copyright (c) Steve Scherf et al.
# Submitted via: CD2WAV32(JP) R3.22
#
DISCID=c00b560e
DTITLE=美空ひばり - 美空ひばり大全集 ～共に歩んだ20年～
DYEAR=2012
DGENRE=Folk
TTITLE0=ひばりのマドロスさん
TTITLE1=港は別れてゆくところ
TTITLE2=波止場小僧
TTITLE3=浜っ子マドロス
TTITLE4=君はマドロス海つばめ
TTITLE5=波止場へいこうよ
TTITLE6=波止場だよ、お父つぁん
TTITLE7=港町十三番地
TTITLE8=あの日の船はもう来ない
TTITLE9=ひばりの船長さん
TTITLE10=三味線マドロス
TTITLE11=ご機嫌ようマドロスさん
TTITLE12=初恋マドロス
TTITLE13=哀愁波止場
EXTD=
EXTT0=
EXTT1=
EXTT2=
EXTT3=
EXTT4=
EXTT5=
EXTT6=
EXTT7=
EXTT8=
EXTT9=
EXTT10=
EXTT11=
EXTT12=
EXTT13=
PLAYORDER=
